<mxfile host="app.diagrams.net" modified="2024-02-04T16:11:03.405Z" agent="Mozilla/5.0 (Windows NT 10.0; Win64; x64) AppleWebKit/537.36 (KHTML, like Gecko) Chrome/121.0.0.0 Safari/537.36" etag="QqYgh_--OBzATy_zwdST" version="23.1.1" type="github">
  <diagram id="C5RBs43oDa-KdzZeNtuy" name="Page-1">
    <mxGraphModel dx="880" dy="434" grid="1" gridSize="10" guides="1" tooltips="1" connect="1" arrows="1" fold="1" page="1" pageScale="1" pageWidth="827" pageHeight="1169" math="0" shadow="0">
      <root>
        <mxCell id="WIyWlLk6GJQsqaUBKTNV-0" />
        <mxCell id="WIyWlLk6GJQsqaUBKTNV-1" parent="WIyWlLk6GJQsqaUBKTNV-0" />
        <mxCell id="qHoCCJGFqScpS_oCMBG3-7" style="edgeStyle=orthogonalEdgeStyle;rounded=0;orthogonalLoop=1;jettySize=auto;html=1;exitX=0.5;exitY=1;exitDx=0;exitDy=0;exitPerimeter=0;entryX=0.5;entryY=0;entryDx=0;entryDy=0;labelBackgroundColor=none;strokeColor=#23445D;fontColor=default;" edge="1" parent="WIyWlLk6GJQsqaUBKTNV-1" source="qHoCCJGFqScpS_oCMBG3-0" target="qHoCCJGFqScpS_oCMBG3-1">
          <mxGeometry relative="1" as="geometry" />
        </mxCell>
        <mxCell id="qHoCCJGFqScpS_oCMBG3-0" value="START" style="strokeWidth=2;html=1;shape=mxgraph.flowchart.terminator;whiteSpace=wrap;labelBackgroundColor=none;fillColor=#182E3E;strokeColor=#FFFFFF;fontColor=#FFFFFF;" vertex="1" parent="WIyWlLk6GJQsqaUBKTNV-1">
          <mxGeometry x="280" y="70" width="200" height="60" as="geometry" />
        </mxCell>
        <mxCell id="qHoCCJGFqScpS_oCMBG3-1" value="INPUT tahun&amp;nbsp;" style="shape=parallelogram;html=1;strokeWidth=2;perimeter=parallelogramPerimeter;whiteSpace=wrap;rounded=1;arcSize=12;size=0.23;labelBackgroundColor=none;fillColor=#182E3E;strokeColor=#FFFFFF;fontColor=#FFFFFF;" vertex="1" parent="WIyWlLk6GJQsqaUBKTNV-1">
          <mxGeometry x="260" y="180" width="240" height="60" as="geometry" />
        </mxCell>
        <mxCell id="qHoCCJGFqScpS_oCMBG3-10" style="edgeStyle=orthogonalEdgeStyle;rounded=0;orthogonalLoop=1;jettySize=auto;html=1;exitX=1;exitY=0.5;exitDx=0;exitDy=0;exitPerimeter=0;labelBackgroundColor=none;strokeColor=#23445D;fontColor=default;" edge="1" parent="WIyWlLk6GJQsqaUBKTNV-1" source="qHoCCJGFqScpS_oCMBG3-2" target="qHoCCJGFqScpS_oCMBG3-3">
          <mxGeometry relative="1" as="geometry" />
        </mxCell>
        <mxCell id="qHoCCJGFqScpS_oCMBG3-12" style="edgeStyle=orthogonalEdgeStyle;rounded=0;orthogonalLoop=1;jettySize=auto;html=1;exitX=0.5;exitY=1;exitDx=0;exitDy=0;exitPerimeter=0;entryX=0.5;entryY=0;entryDx=0;entryDy=0;labelBackgroundColor=none;strokeColor=#23445D;fontColor=default;" edge="1" parent="WIyWlLk6GJQsqaUBKTNV-1" source="qHoCCJGFqScpS_oCMBG3-2" target="qHoCCJGFqScpS_oCMBG3-4">
          <mxGeometry relative="1" as="geometry" />
        </mxCell>
        <mxCell id="qHoCCJGFqScpS_oCMBG3-2" value="tahun % 400 = 0 or (tahun % 4 = 0&lt;br&gt;&amp;amp;&amp;amp; tahun % 100 != 0)&amp;nbsp;" style="strokeWidth=2;html=1;shape=mxgraph.flowchart.decision;whiteSpace=wrap;labelBackgroundColor=none;fillColor=#182E3E;strokeColor=#FFFFFF;fontColor=#FFFFFF;" vertex="1" parent="WIyWlLk6GJQsqaUBKTNV-1">
          <mxGeometry x="260" y="300" width="240" height="120" as="geometry" />
        </mxCell>
        <mxCell id="qHoCCJGFqScpS_oCMBG3-3" value="OUTPUT Bukan&lt;br&gt;Tahun Kabisat" style="shape=parallelogram;html=1;strokeWidth=2;perimeter=parallelogramPerimeter;whiteSpace=wrap;rounded=1;arcSize=12;size=0.23;labelBackgroundColor=none;fillColor=#182E3E;strokeColor=#FFFFFF;fontColor=#FFFFFF;" vertex="1" parent="WIyWlLk6GJQsqaUBKTNV-1">
          <mxGeometry x="580" y="330" width="240" height="60" as="geometry" />
        </mxCell>
        <mxCell id="qHoCCJGFqScpS_oCMBG3-4" value="OUTPUT&amp;nbsp;&lt;br&gt;Tahun Kabisat" style="shape=parallelogram;html=1;strokeWidth=2;perimeter=parallelogramPerimeter;whiteSpace=wrap;rounded=1;arcSize=12;size=0.23;labelBackgroundColor=none;fillColor=#182E3E;strokeColor=#FFFFFF;fontColor=#FFFFFF;" vertex="1" parent="WIyWlLk6GJQsqaUBKTNV-1">
          <mxGeometry x="260" y="500" width="240" height="60" as="geometry" />
        </mxCell>
        <mxCell id="qHoCCJGFqScpS_oCMBG3-5" value="END" style="strokeWidth=2;html=1;shape=mxgraph.flowchart.terminator;whiteSpace=wrap;labelBackgroundColor=none;fillColor=#182E3E;strokeColor=#FFFFFF;fontColor=#FFFFFF;" vertex="1" parent="WIyWlLk6GJQsqaUBKTNV-1">
          <mxGeometry x="280" y="640" width="200" height="60" as="geometry" />
        </mxCell>
        <mxCell id="qHoCCJGFqScpS_oCMBG3-9" style="edgeStyle=orthogonalEdgeStyle;rounded=0;orthogonalLoop=1;jettySize=auto;html=1;exitX=0.5;exitY=1;exitDx=0;exitDy=0;entryX=0.5;entryY=0;entryDx=0;entryDy=0;entryPerimeter=0;labelBackgroundColor=none;strokeColor=#23445D;fontColor=default;" edge="1" parent="WIyWlLk6GJQsqaUBKTNV-1" source="qHoCCJGFqScpS_oCMBG3-1" target="qHoCCJGFqScpS_oCMBG3-2">
          <mxGeometry relative="1" as="geometry" />
        </mxCell>
        <mxCell id="qHoCCJGFqScpS_oCMBG3-13" style="edgeStyle=orthogonalEdgeStyle;rounded=0;orthogonalLoop=1;jettySize=auto;html=1;exitX=0.5;exitY=1;exitDx=0;exitDy=0;labelBackgroundColor=none;strokeColor=#23445D;fontColor=default;" edge="1" parent="WIyWlLk6GJQsqaUBKTNV-1" source="qHoCCJGFqScpS_oCMBG3-4" target="qHoCCJGFqScpS_oCMBG3-5">
          <mxGeometry relative="1" as="geometry" />
        </mxCell>
        <mxCell id="qHoCCJGFqScpS_oCMBG3-14" style="edgeStyle=orthogonalEdgeStyle;rounded=0;orthogonalLoop=1;jettySize=auto;html=1;exitX=0.5;exitY=1;exitDx=0;exitDy=0;entryX=1;entryY=0.5;entryDx=0;entryDy=0;entryPerimeter=0;labelBackgroundColor=none;strokeColor=#23445D;fontColor=default;" edge="1" parent="WIyWlLk6GJQsqaUBKTNV-1" source="qHoCCJGFqScpS_oCMBG3-3" target="qHoCCJGFqScpS_oCMBG3-5">
          <mxGeometry relative="1" as="geometry" />
        </mxCell>
        <mxCell id="qHoCCJGFqScpS_oCMBG3-15" value="Tidak" style="text;strokeColor=none;align=center;fillColor=none;html=1;verticalAlign=middle;whiteSpace=wrap;rounded=0;fontColor=#000000;" vertex="1" parent="WIyWlLk6GJQsqaUBKTNV-1">
          <mxGeometry x="520" y="340" width="60" height="20" as="geometry" />
        </mxCell>
        <mxCell id="qHoCCJGFqScpS_oCMBG3-16" value="Ya" style="text;strokeColor=none;align=center;fillColor=none;html=1;verticalAlign=middle;whiteSpace=wrap;rounded=0;fontColor=#000000;" vertex="1" parent="WIyWlLk6GJQsqaUBKTNV-1">
          <mxGeometry x="384" y="450" width="26" height="20" as="geometry" />
        </mxCell>
      </root>
    </mxGraphModel>
  </diagram>
</mxfile>
